<?xml version="1.0" standalone="no"?><!DOCTYPE svg PUBLIC "-//W3C//DTD SVG 1.1//EN" "http://www.w3.org/Graphics/SVG/1.1/DTD/svg11.dtd"><svg width="32.09375" height="32" viewBox="0 0 32.09375 32" version="1.1" xmlns="http://www.w3.org/2000/svg" xmlns:xlink="http://www.w3.org/1999/xlink"><defs><style type="text/css"><![CDATA[
@font-face { font-family: ifont; src: url("http://at.alicdn.com/t/font_1442373896_4754455.eot?#iefix") format("embedded-opentype"), url("http://at.alicdn.com/t/font_1442373896_4754455.woff") format("woff"), url("http://at.alicdn.com/t/font_1442373896_4754455.ttf") format("truetype"), url("http://at.alicdn.com/t/font_1442373896_4754455.svg#ifont") format("svg"); }

]]></style></defs><g class="transform-group"><g transform="scale(0.03125, 0.03125)"><path d="M669.318373 369.122345 448.8995 589.542233l-97.841247-97.863576c-14.148413-14.148413-37.107613-14.148413-51.211367 0-14.193071 14.148413-14.193071 37.108627 0 51.233696l123.468753 123.492096c7.074206 7.074206 16.328527 10.634653 25.583862 10.634653 9.255335 0 18.554314-3.560447 25.62852-10.634653l246.048408-246.027094c14.149428-14.148413 14.149428-37.085284 0-51.256025C706.427001 354.972917 683.468816 354.996261 669.318373 369.122345L669.318373 369.122345zM669.318373 369.122345M510.166999 1018.925247c-279.240341 0-501.174536-221.932165-501.174536-501.173521 0-279.240341 221.93318-501.173521 501.174536-501.173521 279.240341 0 501.174536 221.93318 501.174536 501.173521C1011.341535 796.993082 789.40734 1018.925247 510.166999 1018.925247L510.166999 1018.925247 510.166999 1018.925247zM510.166999 73.886381c-243.423746 0-436.74648 200.442614-436.74648 436.702838s200.487271 436.747495 436.74648 436.747495c236.260224 0 436.74648-200.487271 436.74648-436.747495S753.58973 73.886381 510.166999 73.886381L510.166999 73.886381 510.166999 73.886381z" fill="#a9b7b7"></path></g></g></svg>