<?xml version="1.0" standalone="no"?><!DOCTYPE svg PUBLIC "-//W3C//DTD SVG 1.1//EN" "http://www.w3.org/Graphics/SVG/1.1/DTD/svg11.dtd"><svg width="32" height="32" viewBox="0 0 32 32" version="1.1" xmlns="http://www.w3.org/2000/svg" xmlns:xlink="http://www.w3.org/1999/xlink"><defs><style type="text/css"><![CDATA[
@font-face { font-family: ifont; src: url("http://at.alicdn.com/t/font_1442373896_4754455.eot?#iefix") format("embedded-opentype"), url("http://at.alicdn.com/t/font_1442373896_4754455.woff") format("woff"), url("http://at.alicdn.com/t/font_1442373896_4754455.ttf") format("truetype"), url("http://at.alicdn.com/t/font_1442373896_4754455.svg#ifont") format("svg"); }

]]></style></defs><g class="transform-group"><g transform="scale(0.03125, 0.03125)"><path d="M721.92 352.376471c-12.950588-0.542118-26.021647 3.794824-35.900235 13.733647L463.992471 588.137412 337.92 462.064941C328.041412 452.186353 314.970353 447.849412 302.08 448.331294c-11.625412 0.481882-23.130353 4.818824-32.045176 13.733647C261.180235 470.919529 256.843294 482.484706 256.361412 494.110118 255.879529 507.000471 260.216471 520.071529 270.034824 529.950118l159.984941 159.984941c9.396706 9.336471 21.684706 14.034824 33.912471 14.034824 12.288 0 24.576-4.698353 33.912471-14.034824l256-256c9.878588-9.878588 14.215529-22.949647 13.733647-35.84-0.481882-11.625412-4.818824-23.190588-13.733647-32.045176S733.545412 352.798118 721.92 352.376471zM512 0C229.255529 0 0 229.255529 0 512S229.255529 1024 512 1024c282.744471 0 512-229.255529 512-512S794.744471 0 512 0zM512 927.984941c-229.376 0-415.984941-186.669176-415.984941-415.984941S282.624 96.015059 512 96.015059c229.376 0 415.984941 186.669176 415.984941 415.984941S741.376 927.984941 512 927.984941z" fill="#11cd6e"></path></g></g></svg>